<svg xmlns="http://www.w3.org/2000/svg" width="123" height="124" viewBox="0 0 123 124" fill="none">
  <path fill-rule="evenodd" clip-rule="evenodd"
    d="M4.39286 123.5H21.9643V119.107H7.49908L25.8487 100.758C24.7011 99.842 23.6472 98.8139 22.7039 97.6899L4.39286 116.001V101.536H0V119.107V123.5H4.39286ZM22.3563 25.9625L4.39286 7.99908V22.4643H0V4.89286V0.5H4.39286H21.9643V4.89286H7.49907L25.4239 22.8177C24.2999 23.7611 23.2718 24.8149 22.3563 25.9625ZM97.5761 22.8177C98.7001 23.7611 99.7282 24.8149 100.644 25.9625L118.607 7.99908V22.4643H123V4.89286V0.5H118.607H101.036V4.89286H115.501L97.5761 22.8177ZM100.296 97.6899C99.3528 98.8139 98.2989 99.842 97.1513 100.758L115.501 119.107H101.036V123.5H118.607H123V119.107V101.536H118.607V116.001L100.296 97.6899Z"
    fill="#9AC6BB" />
</svg>