<svg width="257" height="257" viewBox="0 0 257 257" fill="none" xmlns="http://www.w3.org/2000/svg">
<path d="M190.707 70.31C179.102 64.8802 166.693 60.934 153.72 58.687C152.126 61.5676 150.265 65.442 148.982 68.524C135.191 66.4501 121.527 66.4501 107.99 68.524C106.707 65.442 104.803 61.5676 103.195 58.687C90.2083 60.934 77.7851 64.8947 66.1799 70.3387C42.772 105.711 36.4265 140.205 39.5992 174.209C55.1246 185.803 70.1705 192.846 84.9625 197.455C88.6148 192.428 91.8721 187.085 94.6782 181.453C89.3339 179.423 84.2152 176.917 79.3786 174.007C80.6617 173.057 81.9168 172.063 83.1294 171.04C112.629 184.838 144.681 184.838 173.828 171.04C175.055 172.063 176.31 173.057 177.579 174.007C172.728 176.931 167.595 179.437 162.251 181.468C165.057 187.085 168.3 192.443 171.967 197.469C186.773 192.86 201.833 185.817 217.358 174.209C221.081 134.79 210.999 100.613 190.707 70.31ZM98.6971 153.297C89.8416 153.297 82.5794 145.03 82.5794 134.962C82.5794 124.895 89.6865 116.614 98.6971 116.614C107.708 116.614 114.97 124.881 114.815 134.962C114.829 145.03 107.708 153.297 98.6971 153.297ZM158.26 153.297C149.405 153.297 142.143 145.03 142.143 134.962C142.143 124.895 149.25 116.614 158.26 116.614C167.271 116.614 174.533 124.881 174.378 134.962C174.378 145.03 167.271 153.297 158.26 153.297Z" fill="#2A3A37"/>
</svg>
