<svg width="256" height="256" viewBox="0 0 256 256" fill="none" xmlns="http://www.w3.org/2000/svg">
<path fill-rule="evenodd" clip-rule="evenodd" d="M59.3318 118.828C102.074 100.206 130.576 87.9292 144.836 81.9977C185.554 65.0618 194.015 62.1199 199.529 62.0228C200.742 62.0014 203.454 62.302 205.211 63.7274C206.694 64.931 207.102 66.5569 207.297 67.698C207.493 68.8391 207.736 71.4387 207.543 73.4699C205.336 96.6537 195.789 152.915 190.931 178.881C188.876 189.868 184.829 193.552 180.911 193.913C172.397 194.696 165.932 188.286 157.685 182.88C144.781 174.421 137.49 169.156 124.965 160.901C110.489 151.362 119.873 146.119 128.123 137.55C130.282 135.308 167.796 101.185 168.522 98.09C168.613 97.7028 168.697 96.2598 167.84 95.4978C166.983 94.7358 165.717 94.9963 164.804 95.2036C163.51 95.4973 142.895 109.123 102.96 136.08C97.1085 140.099 91.8084 142.056 87.0597 141.954C81.8247 141.841 71.7546 138.994 64.2685 136.56C55.0865 133.576 47.7889 131.998 48.4243 126.929C48.7553 124.288 52.3911 121.588 59.3318 118.828Z" fill="#2A3A37"/>
</svg>
