<svg width="256" height="256" viewBox="0 0 256 256" fill="none" xmlns="http://www.w3.org/2000/svg">
<path d="M145.404 115.853L202.654 49.3043L205.497 46H201.138H187.334H186.416L185.818 46.6957L136.931 103.522L98.0025 46.8674L97.4065 46H96.3541H49.7588H45.9579L48.1104 49.1326L108.329 136.772L48.2427 206.613L45.3998 209.918H49.7588H63.5636H64.4813L65.0798 209.222L116.801 149.101L157.994 209.05L158.59 209.918H159.643H206.238H210.039L207.886 206.785L145.404 115.853ZM167.179 195.998L125.978 137.066V137.063L125.617 136.546L119.427 127.693L72.3762 60.3921H88.6991L127.847 116.391L127.847 116.391L134.037 125.244L183.502 195.998H167.179Z" fill="#2A3A37" stroke="#2A3A37" stroke-width="4"/>
</svg>
